<svg width="520" height="230" viewBox="0 0 520 230" fill="none" xmlns="http://www.w3.org/2000/svg">
<path d="M2 63.6059C54.609 58.469 108.05 57.9955 161.288 60.3867C209.431 62.5491 259.055 66.979 306.115 73.2635C329.287 76.3581 358.562 80.4213 378.308 88.9881C402.698 99.5696 418.718 115.674 412.748 133.066C397.136 178.551 291.908 192.728 222.166 185.007C171.719 179.422 121.452 171.701 75.2966 158.758C61.0253 154.756 45.5132 148.501 42.1807 138.762C36.0989 120.988 48.4393 109.512 76.5109 98.8933C98.5458 90.5581 123.993 85.2629 149.145 80.4448C197.767 71.1309 244.672 67.1045 295.242 64.9989C321.301 63.9138 351.199 65.283 373.892 73.635C382.237 76.7063 388.644 79.5106 398.398 80.8782" stroke="#F4EEE6" stroke-width="3" stroke-linecap="round"/>
<path d="M296.379 72.4001C295.888 72.4001 293.731 72.619 293.371 72.2818C292.321 71.2983 293.83 68.1284 293.858 68.0496C298.54 54.6462 304.605 40.9801 312.439 28.2437C319.264 17.1483 339.015 5.87816 356.592 3.26515C409.836 -4.64981 450.753 26.0456 473.08 54.3173C485.18 69.6384 494.094 85.0693 499.625 101.996C504.014 115.426 509.01 129.119 512.013 142.719C514.241 152.807 514.444 162.974 514.579 173.143C514.643 177.97 519.753 223.81 518 228.5" stroke="#F4EEE6" stroke-width="3" stroke-linecap="round"/>
</svg>
