<svg width="320" height="313" viewBox="0 0 320 313" fill="none" xmlns="http://www.w3.org/2000/svg">
<path d="M62.5 155L104 148C104 158.933 104.5 167.533 100.5 175C96.5 182.2 87.7667 186 75.5 186L62.5 188V155ZM107.8 89.4002C107.8 86.4669 107.533 83.5335 107 80.6002C106.733 77.4002 105.933 74.6002 104.6 72.2002C103.533 69.5335 101.8 67.4002 99.4001 65.8002C97.2668 64.2002 94.2001 63.4002 90.2001 63.4002C85.1334 63.4002 80.8668 65.0002 77.4001 68.2002C75.8001 63.9335 75.0001 60.0669 75.0001 56.6002C75.0001 52.3335 75.6668 48.2002 77.0001 44.2002C78.6001 39.9335 81.0001 36.2002 84.2001 33.0002C87.4001 29.8002 91.4001 27.2669 96.2001 25.4002C101.267 23.2669 107.4 22.2002 114.6 22.2002C122.6 22.2002 129.667 23.6669 135.8 26.6002C142.2 29.2669 147.533 33.1335 151.8 38.2002C156.067 43.0002 159.267 48.7335 161.4 55.4002C163.8 61.8002 165 68.7335 165 76.2002V313C157.8 313 150.733 312.467 143.8 311.4C137.133 310.333 131 308.2 125.4 305C120.067 301.533 115.8 296.467 112.6 289.8C109.4 283.133 107.8 274.2 107.8 263V89.4002Z" fill="#10101A"/>
<path d="M53.9722 313C46.9908 313 40.2778 312.637 33.8333 311.912C27.3889 311.187 21.6158 309.881 16.5139 307.994C11.6806 306.108 7.65278 303.497 4.43056 300.16C1.47685 296.823 0 292.47 0 287.102V181.116C0 176.183 1.87963 172.048 5.63889 168.711C9.39814 165.229 14.0972 162.545 19.7361 160.658C25.375 158.627 31.5509 157.176 38.2639 156.306C45.2453 155.435 51.8241 155 58 155V313H53.9722Z" fill="#10101A"/>
<path d="M198.019 140.465C198.019 136.543 197.735 132.785 197.168 129.191C196.884 125.597 196.034 122.492 194.617 119.878C193.483 116.937 191.64 114.65 189.089 113.016C186.821 111.055 183.561 110.075 179.308 110.075C177.041 110.075 174.631 110.565 172.079 111.545C169.812 112.199 167.686 113.506 165.701 115.467C164.567 112.852 164 109.911 164 106.644C164 95.2067 167.402 85.2401 174.206 76.7441C181.009 68.248 191.215 64 204.822 64C220.981 64 233.313 69.3917 241.818 80.1752C250.606 90.6319 255 106.154 255 126.74V313H252.449C235.439 313 222.116 308.426 212.477 299.276C202.838 289.8 198.019 274.768 198.019 254.181V140.465Z" fill="#10101A"/>
<path d="M255 32.4C255 23.3333 258.2 15.7333 264.6 9.60001C271 3.2 278.6 0 287.4 0C296.2 0 303.667 3.2 309.8 9.60001C316.2 15.7333 319.4 23.3333 319.4 32.4C319.4 41.4667 316.2 49.0667 309.8 55.2C303.667 61.3333 296.2 64.4 287.4 64.4C278.6 64.4 271 61.3333 264.6 55.2C258.2 49.0667 255 41.4667 255 32.4Z" fill="#10101A"/>
</svg>
